<svg xmlns="http://www.w3.org/2000/svg" width="32" height="32" viewBox="0 0 32 32">
    <g data-name="16_ena_get">
        <g data-name="Group 6061">
            <path data-name="Path 4118" d="M787-6465h-16a2 2 0 0 0-2 2v16a2 2 0 0 0 2 2h16a2 2 0 0 0 2-2v-16a2 2 0 0 0-2-2zm0 18h-16v-16h16z" style="fill:current" transform="translate(-761 6473)"/>
            <path data-name="Path 4119" d="M777.707-6451.222a1.528 1.528 0 0 0 .794.221 1.533 1.533 0 0 0 .706-.172l1.793-.933 1.793.933a1.537 1.537 0 0 0 1.5-.049 1.445 1.445 0 0 0 .707-1.241v-7.074a1.483 1.483 0 0 0-1.5-1.463h-5a1.483 1.483 0 0 0-1.5 1.463v7.074a1.445 1.445 0 0 0 .707 1.241zM779-6459h4v5.68l-1.294-.673a1.53 1.53 0 0 0-1.413 0l-1.293.673z" style="fill:current" transform="translate(-761 6473)"/>
            <path data-name="Path 4120" d="M782-6467a1 1 0 0 0 1-1 1 1 0 0 0-1-1h-16a1 1 0 0 0-1 1v16a1 1 0 0 0 1 1 1 1 0 0 0 1-1v-15z" style="fill:current" transform="translate(-761 6473)"/>
        </g>
        <path data-name="Rectangle 12617" style="fill:none" d="M0 0h32v32H0z"/>
    </g>
</svg>
