<svg xmlns="http://www.w3.org/2000/svg" width="48" height="48" viewBox="0 0 48 48">
    <g data-name="24_ena_my">
        <path data-name="Rectangle 2162" style="fill:none" d="M0 0h48v48H0z"/>
        <g data-name="Group 5891" transform="translate(-602 -1500)">
            <circle data-name="Ellipse 39" cx="10" cy="10" r="10" transform="translate(630 1528)" style="fill:#c9bbff"/>
            <path data-name="Path 4046" d="M-4304.469-6604a10.955 10.955 0 0 0 3.469-8 11 11 0 0 0-11-11 11 11 0 0 0-11 11 10.955 10.955 0 0 0 3.469 8 15.991 15.991 0 0 0-10.469 15 2 2 0 0 0 2 2 2 2 0 0 0 2-2 12.013 12.013 0 0 1 12-12h4a12.013 12.013 0 0 1 12 12 2 2 0 0 0 2 2 2 2 0 0 0 2-2 15.991 15.991 0 0 0-10.469-15zm-7.531-1a7.008 7.008 0 0 1-7-7 7.008 7.008 0 0 1 7-7 7.008 7.008 0 0 1 7 7 7.008 7.008 0 0 1-7 7z" transform="translate(4938 8129)" style="fill:#505050"/>
        </g>
    </g>
</svg>
