<svg xmlns="http://www.w3.org/2000/svg" width="48" height="48" viewBox="0 0 48 48">
    <g data-name="24_ena_category edit_2">
        <path data-name="Rectangle 2862" transform="rotate(90 24 24)" style="fill:none" d="M0 0h48v48H0z"/>
        <path data-name="Rectangle 2863" transform="rotate(90 18 24)" style="fill:none" d="M0 0h36v36H0z"/>
        <g data-name="Group 6050" transform="translate(1567 6558)">
            <circle data-name="Ellipse 169" cx="10" cy="10" r="10" transform="translate(-1539 -6530)" style="fill:#c9bbff"/>
            <g data-name="Group 6072">
                <path data-name="Path 4132" d="M-649.338-6473.029a4.044 4.044 0 0 1-1.849-.449l-6.794-3.487-6.832 3.487a4.015 4.015 0 0 1-4.241-.342 3.976 3.976 0 0 1-1.569-3.909l1.283-7.3-5.414-5.145a3.968 3.968 0 0 1-1.054-4.112 3.992 3.992 0 0 1 3.268-2.75l7.533-1.069 3.411-6.716a4.008 4.008 0 0 1 3.6-2.2 4.008 4.008 0 0 1 3.6 2.2l3.391 6.707 7.553 1.078a3.992 3.992 0 0 1 3.268 2.75 3.968 3.968 0 0 1-1.054 4.112l-5.413 5.15 1.282 7.3a3.976 3.976 0 0 1-1.569 3.909 4.027 4.027 0 0 1-2.4.786zm-8.643-30-3.436 6.719a4.031 4.031 0 0 1-3.028 2.166l-7.534 1.068 5.4 5.154a3.985 3.985 0 0 1 1.184 3.586l-1.284 7.3 6.839-3.487a4.048 4.048 0 0 1 3.69 0l6.794 3.486-1.239-7.3a3.985 3.985 0 0 1 1.184-3.586l5.413-5.15-7.552-1.072a4.032 4.032 0 0 1-3.028-2.165l-3.391-6.707z" style="fill:#505050" transform="translate(-884.999 -44.973)"/>
            </g>
        </g>
    </g>
</svg>
