<svg xmlns="http://www.w3.org/2000/svg" width="48" height="48" viewBox="0 0 48 48">
    <g data-name="24_ena_setting">
        <g data-name="Group 3730">
            <g data-name="Group 3729">
                <path data-name="Rectangle 458" style="fill:none" d="M0 0h48v48H0z"/>
            </g>
            <path data-name="Rectangle 2163" style="fill:none" d="M0 0h48v48H0z"/>
            <path data-name="Rectangle 2732" transform="translate(6 6)" style="fill:none" d="M0 0h36v36H0z"/>
        </g>
        <g data-name="Group 5977" transform="translate(1657 6558)">
            <circle data-name="Ellipse 163" cx="10" cy="10" r="10" transform="translate(-1629 -6530)" style="fill:#c9bbff"/>
            <g data-name="Group 5976">
                <path data-name="Path 4061" d="m-1626.171-6546 6.863 12-6.863 12h-13.658l-6.863-12 6.863-12h13.658m1.161-4h-15.98a2 2 0 0 0-1.736 1.007l-8.006 14a2 2 0 0 0 0 1.986l8.006 14a2 2 0 0 0 1.736 1.007h15.98a2 2 0 0 0 1.736-1.007l8.006-14a2 2 0 0 0 0-1.986l-8.006-14a2 2 0 0 0-1.736-1.007z" style="fill:#505050"/>
                <path data-name="Path 4062" d="M-1633-6537a3 3 0 0 1 3 3 3 3 0 0 1-3 3 3 3 0 0 1-3-3 3 3 0 0 1 3-3m0-4a7 7 0 0 0-7 7 7 7 0 0 0 7 7 7 7 0 0 0 7-7 7 7 0 0 0-7-7z" style="fill:#505050"/>
            </g>
        </g>
    </g>
</svg>
