<svg xmlns="http://www.w3.org/2000/svg" width="56" height="56" viewBox="0 0 56 56">
    <g data-name="28_ena_get">
        <g data-name="Group 5865">
            <path data-name="Rectangle 2163" style="fill:none" d="M0 0h56v56H0z"/>
            <g data-name="Group 6055">
                <g data-name="Icon material-collections-bookmark">
                    <path data-name="Path 4111" d="M737.823-6428.882a2.968 2.968 0 0 1-1.5-.412l-3.5-2.048-3.5 2.048a2.937 2.937 0 0 1-2.977.014 3.053 3.053 0 0 1-1.524-2.647v-15.917a3.024 3.024 0 0 1 3-3.04h10a3.023 3.023 0 0 1 3 3.04v15.917a3.055 3.055 0 0 1-1.524 2.648 2.969 2.969 0 0 1-1.475.397zm-5-6.624a2.97 2.97 0 0 1 1.5.407l2.5 1.463v-13.248h-8v13.248l2.5-1.463a2.967 2.967 0 0 1 1.499-.407z" style="fill:#572cff" transform="translate(-695 6469)"/>
                </g>
                <g data-name="Group 6054">
                    <path data-name="Path 4112" d="M742.509-6417h-31.018a4.537 4.537 0 0 1-4.491-4.571v-30.858a4.537 4.537 0 0 1 4.491-4.571h31.018a4.537 4.537 0 0 1 4.491 4.571v30.858a4.537 4.537 0 0 1-4.491 4.571zm-31.018-36a.536.536 0 0 0-.491.571v30.858a.536.536 0 0 0 .491.571h31.018a.536.536 0 0 0 .491-.571v-30.858a.536.536 0 0 0-.491-.571z" style="fill:#505050" transform="translate(-695 6469)"/>
                </g>
                <path data-name="Path 4113" d="M735-6413h-32v-32a2 2 0 0 0-2-2 2 2 0 0 0-2 2v34a2 2 0 0 0 2 2h34a2 2 0 0 0 2-2 2 2 0 0 0-2-2z" transform="rotate(90 -2855 -3550)" style="fill:#505050"/>
            </g>
        </g>
    </g>
</svg>
