<svg xmlns="http://www.w3.org/2000/svg" width="38" height="60" viewBox="0 0 38 60">
    <g data-name="ena_floating_make tuning">
        <path data-name="Path 4054" d="M-2455-4647h-12v-12a2 2 0 0 0-2-2 2 2 0 0 0-2 2v12h-12a2 2 0 0 0-2 2 2 2 0 0 0 2 2h12v12a2 2 0 0 0 2 2 2 2 0 0 0 2-2v-12h12a2 2 0 0 0 2-2 2 2 0 0 0-2-2z" transform="translate(2488 4661)" style="fill:#fff"/>
        <g data-name="Group 5962">
            <path data-name="Path 4055" d="M-2327-4640v-2h-13v-2h13v-2h-13v-2h13v-2h-15v10h15z" transform="translate(2344 4689)" style="fill:#fff"/>
            <path data-name="Path 4056" d="M-2309-4640v-2h-10v-8h-2v10h12z" style="fill:#fff" transform="translate(2343 4689)"/>
            <path data-name="Path 4057" d="M-2331-4638h-13v2h5v7h2v-7h6v7h2v-7h5v-2h-7z" transform="translate(2344 4689)" style="fill:#fff"/>
            <path data-name="Rectangle 2909" transform="translate(36 38)" style="fill:#fff" d="M0 0h2v12H0z"/>
            <path data-name="Path 4058" d="M-2309.5-4638h-6a4.5 4.5 0 0 0-4.5 4.5 4.5 4.5 0 0 0 4.5 4.5h6a4.5 4.5 0 0 0 4.5-4.5 4.5 4.5 0 0 0-4.5-4.5zm0 7h-6a2.5 2.5 0 0 1-2.5-2.5 2.5 2.5 0 0 1 2.5-2.5h6a2.5 2.5 0 0 1 2.5 2.5 2.5 2.5 0 0 1-2.5 2.5z" style="fill:#fff" transform="translate(2343 4689)"/>
        </g>
    </g>
</svg>
