<svg width="15" height="15" viewBox="0 0 15 15" fill="none" xmlns="http://www.w3.org/2000/svg">
<path d="M12.5 0H2.5C1.83696 0 1.20107 0.263392 0.732233 0.732233C0.263392 1.20107 0 1.83696 0 2.5L0 10C0 10.663 0.263392 11.2989 0.732233 11.7678C1.20107 12.2366 1.83696 12.5 2.5 12.5H4.3125L7.09437 14.8519C7.20723 14.9474 7.35028 14.9998 7.49813 14.9998C7.64597 14.9998 7.78902 14.9474 7.90187 14.8519L10.6875 12.5H12.5C13.163 12.5 13.7989 12.2366 14.2678 11.7678C14.7366 11.2989 15 10.663 15 10V2.5C15 1.83696 14.7366 1.20107 14.2678 0.732233C13.7989 0.263392 13.163 0 12.5 0V0ZM13.75 10C13.75 10.3315 13.6183 10.6495 13.3839 10.8839C13.1495 11.1183 12.8315 11.25 12.5 11.25H10.6875C10.3921 11.2501 10.1062 11.3548 9.88062 11.5456L7.5 13.5562L5.12063 11.5456C4.89473 11.3545 4.60837 11.2498 4.3125 11.25H2.5C2.16848 11.25 1.85054 11.1183 1.61612 10.8839C1.3817 10.6495 1.25 10.3315 1.25 10V2.5C1.25 2.16848 1.3817 1.85054 1.61612 1.61612C1.85054 1.3817 2.16848 1.25 2.5 1.25H12.5C12.8315 1.25 13.1495 1.3817 13.3839 1.61612C13.6183 1.85054 13.75 2.16848 13.75 2.5V10Z" fill="
#b295e9" fill-opacity="0.6"/>
</svg>
