<svg width="15" height="13" viewBox="0 0 15 13" fill="
#505050" xmlns="http://www.w3.org/2000/svg">
<path  d="M9.38187 3.48279L9.59173 2.20802C9.64676 1.87148 9.61025 1.52634 9.48605 1.20876C9.36185 0.891179 9.15452 0.612847 8.88579 0.402929C8.61705 0.193012 8.2968 0.0592354 7.9586 0.0156177C7.62039 -0.0279999 7.27668 0.0201468 6.96348 0.155013C6.53062 0.349265 6.18289 0.693892 5.98476 1.12499L4.81991 3.48279H1.87375C1.3768 3.48279 0.900205 3.68021 0.548809 4.0316C0.197412 4.383 0 4.8596 0 5.35654L0 10.9778C0 11.4747 0.197412 11.9513 0.548809 12.3027C0.900205 12.6541 1.3768 12.8515 1.87375 12.8515H13.7521L14.99 5.95802L15 3.48279H9.38187ZM1.24917 10.9778V5.35654C1.24917 5.1909 1.31497 5.03203 1.4321 4.9149C1.54924 4.79777 1.7081 4.73196 1.87375 4.73196H4.37209V11.6024H1.87375C1.7081 11.6024 1.54924 11.5366 1.4321 11.4194C1.31497 11.3023 1.24917 11.1434 1.24917 10.9778ZM13.7408 5.79375L12.6978 11.6024H5.62125V4.67512L7.13212 1.61466C7.18328 1.52209 7.25568 1.44299 7.34337 1.38385C7.43105 1.32471 7.53153 1.28723 7.63652 1.27449C7.74152 1.26174 7.84804 1.2741 7.94733 1.31055C8.04661 1.34699 8.13583 1.40648 8.20765 1.48413C8.26902 1.55548 8.31388 1.6395 8.33903 1.73019C8.36419 1.82088 8.36902 1.91601 8.35318 2.00878L7.90411 4.73196H13.7408V5.79375Z" fill="
current" fill-opacity="0.6"/>
</svg>
