<svg xmlns="http://www.w3.org/2000/svg" width="558" height="326" viewBox="0 0 558 326">
    <defs>
        <clipPath id="0pkdsz8fya">
            <path data-name="Rectangle 2888" transform="translate(223 652)" style="fill:#fff;stroke:#707070" d="M0 0h287v324H0z"/>
        </clipPath>
    </defs>
    <g style="clip-path:url(#0pkdsz8fya)" transform="translate(-96 -650)">
        <path data-name="Polygon 4" d="M145.684 29.957a20 20 0 0 1 34.631 0l128.34 222.034A20 20 0 0 1 291.339 282H34.661a20 20 0 0 1-17.316-30.009z" transform="rotate(30 -888.867 952.171)" style="fill:#e8e2ff"/>
    </g>
    <g data-name="logo">
        <path data-name="Path 9" d="M1440.855 317.2h-.617c-31.2.576-47.016 17.85-47.016 51.342 0 23.992 7.1 52.592 40.906 52.592 9.2 0 16.9-2.618 22.98-7.8-.065 16.173-8.616 20.6-15.039 21.015a12.19 12.19 0 0 1-3.644-.325 12.787 12.787 0 0 1-3.425-1.383 12.042 12.042 0 0 1-2.867-2.318 9.962 9.962 0 0 1-2.063-3.413 4.63 4.63 0 0 0-1.547-2.66 2.516 2.516 0 0 0-1.171-.371c-.057 0-.111-.006-.169-.006h-29.865a1.332 1.332 0 0 0-1.273 1.69l.825 3.01c5.941 21.692 19.563 31.694 42.552 31.694l.032-1.484.032 1.482c32.02-.574 48.254-15.49 48.254-41.409v-55.84c.001-29.977-16.211-45.816-46.885-45.816zm-12.535 64.6a8.212 8.212 0 0 1-8.981 8.227 8.475 8.475 0 0 1-7.372-8.582v-33.27a8.475 8.475 0 0 1 7.372-8.581 8.212 8.212 0 0 1 8.981 8.225zm24.008 0a8.213 8.213 0 0 1-8.981 8.227 8.475 8.475 0 0 1-7.372-8.582v-33.27a8.475 8.475 0 0 1 7.372-8.581 8.213 8.213 0 0 1 8.981 8.225zm-384.786-76.2h-28.3v114.5h-33.336V305.6h-32.371a3.113 3.113 0 0 1-3.1-3.131v-11.602c0-10.941 7.517-12.422 16.758-12.422h87.523v19.891a7.215 7.215 0 0 1-7.174 7.253zm61.95 11.225h16.4V378c0 17.844-4.86 29.924-14.445 35.9a58.5 58.5 0 0 1-29.842 7.978 50.972 50.972 0 0 1-28.877-8.751c-9.387-5.982-14.176-17.811-14.176-35.127v-61.187h32.28v66c0 7.989 3.326 11.248 11.477 11.248s11.48-3.259 11.48-11.248V333.04c-.114-5.079 1.215-9.142 3.957-11.978 2.732-2.819 6.682-4.249 11.746-4.249zm101.977 9.911c7.408 7.536 11.115 18.8 11.02 33.463v59.9h-16.557l-.149-.01c-10.158-.7-15.751-6.459-15.751-16.215v-48.4c-.434-7.414-3.759-10.3-11.832-10.3-8.023 0-11.35 2.972-11.481 10.258v64.671h-32.63v-59.945c0-29.29 15.373-44.772 44.462-44.772 14.449 0 25.527 3.814 32.919 11.339zm52.415 5.958v87.409H1251.6v-103.29h16.582a15.785 15.785 0 0 1 15.703 15.87zm0-26.78H1251.6v-27.469h16.58c5.081 0 9.044 1.434 11.775 4.262 2.719 2.813 4.04 6.813 3.922 11.889zm89.149 20.823c7.408 7.536 11.115 18.8 11.019 33.463v59.9H1367.5l-.149-.01c-10.158-.7-15.75-6.459-15.75-16.215v-48.4c-.434-7.414-3.761-10.3-11.834-10.3-8.024 0-11.348 2.972-11.481 10.258v64.671h-32.633v-59.946c0-29.29 15.376-44.772 44.465-44.772 14.445 0 25.52 3.814 32.912 11.339zm154.839 76.634a14.17 14.17 0 1 1-11.56-11.69 14.251 14.251 0 0 1 11.557 11.678z" transform="translate(-970.066 -200.262)" style="fill:#572cff"/>
        <text data-name="Welcome to" transform="translate(0 49)" style="fill:#191919;font-size:47px;font-family:Roboto-Bold,Roboto;font-weight:700"><tspan x="0" y="0">Welcome to</tspan></text>
    </g>
</svg>
