<svg width="36" height="53" viewBox="0 0 36 53" fill="none" xmlns="http://www.w3.org/2000/svg">
<path d="M18.0833 20.1666C19.2339 20.1666 20.1666 19.2339 20.1666 18.0833C20.1666 16.9327 19.2339 16 18.0833 16C16.9327 16 16 16.9327 16 18.0833C16 19.2339 16.9327 20.1666 18.0833 20.1666Z" fill="white"/>
<path d="M18.0833 28.3333C19.2339 28.3333 20.1666 27.4005 20.1666 26.2499C20.1666 25.0994 19.2339 24.1666 18.0833 24.1666C16.9327 24.1666 16 25.0994 16 26.2499C16 27.4005 16.9327 28.3333 18.0833 28.3333Z" fill="white"/>
<path d="M18.0833 36.4999C19.2339 36.4999 20.1666 35.5672 20.1666 34.4166C20.1666 33.266 19.2339 32.3333 18.0833 32.3333C16.9327 32.3333 16 33.266 16 34.4166C16 35.5672 16.9327 36.4999 18.0833 36.4999Z" fill="white"/>
</svg>
