<svg xmlns="http://www.w3.org/2000/svg" width="178.545" height="103.935" viewBox="0 0 178.545 103.935">
    <defs>
        <clipPath id="lilfxsb8ia">
            <path data-name="Rectangle 2888" style="fill:#fff;stroke:#707070" d="M0 0h92.1v103.935H0z"/>
        </clipPath>
    </defs>
    <g style="clip-path:url(#lilfxsb8ia)">
        <path data-name="Polygon 4" d="M45.264 11.983a8 8 0 0 1 13.852 0l38.327 66.306a8 8 0 0 1-6.926 12H13.864a8 8 0 0 1-6.926-12z" transform="rotate(30 89.288 142.975)" style="fill:#e8e2ff"/>
    </g>
    <g data-name="logo">
        <path data-name="Path 9" d="M1121.059 290.853h-.2c-9.989.184-15.054 5.715-15.054 16.439 0 7.682 2.273 16.839 13.1 16.839a10.97 10.97 0 0 0 7.358-2.5c-.021 5.178-2.759 6.595-4.815 6.729a3.9 3.9 0 0 1-1.167-.1 4.093 4.093 0 0 1-1.1-.443 3.857 3.857 0 0 1-.918-.742 3.189 3.189 0 0 1-.661-1.093 1.482 1.482 0 0 0-.5-.852.806.806 0 0 0-.375-.119h-9.616a.426.426 0 0 0-.407.541l.264.964c1.9 6.945 6.264 10.148 13.625 10.148l.01-.475.01.475c10.252-.184 15.45-4.96 15.45-13.259v-17.883c.009-9.597-5.183-14.669-15.004-14.669zm-4.013 20.683a2.629 2.629 0 0 1-2.875 2.634 2.714 2.714 0 0 1-2.36-2.748V300.77a2.714 2.714 0 0 1 2.36-2.748 2.629 2.629 0 0 1 2.875 2.634zm7.687 0a2.63 2.63 0 0 1-2.876 2.634 2.714 2.714 0 0 1-2.36-2.748V300.77a2.713 2.713 0 0 1 2.36-2.748 2.63 2.63 0 0 1 2.876 2.634zm-123.2-24.4h-9.06V323.8H981.8v-36.664h-10.371a1 1 0 0 1-.992-1v-3.711c0-3.5 2.407-3.977 5.366-3.977h28.024v6.369a2.31 2.31 0 0 1-2.298 2.319zm19.835 3.594h5.253v19.59c0 5.714-1.556 9.581-4.625 11.495a18.73 18.73 0 0 1-9.555 2.554 16.32 16.32 0 0 1-9.246-2.8c-3.006-1.915-4.539-5.7-4.539-11.247V290.73h10.336v21.133c0 2.558 1.065 3.6 3.675 3.6s3.676-1.043 3.676-3.6v-15.937a5.154 5.154 0 0 1 1.267-3.835 5.011 5.011 0 0 1 3.755-1.361zm32.652 3.174c2.372 2.413 3.559 6.018 3.528 10.714V323.8H1052.201c-3.252-.224-5.043-2.068-5.043-5.192v-15.5c-.139-2.374-1.2-3.3-3.788-3.3-2.569 0-3.634.952-3.676 3.285V323.8h-10.448v-19.19c0-9.378 4.922-14.335 14.236-14.335 4.618-.002 8.168 1.22 10.535 3.625zm16.783 1.908V323.8h-10.336v-33.07h5.309a5.054 5.054 0 0 1 5.024 5.081zm0-8.575h-10.335v-8.791h5.308a5.021 5.021 0 0 1 3.77 1.365 5.1 5.1 0 0 1 1.256 3.807zm28.544 6.667c2.372 2.413 3.559 6.018 3.528 10.714V323.8h-5.348c-3.252-.224-5.043-2.068-5.043-5.192v-15.5c-.139-2.374-1.2-3.3-3.789-3.3-2.569 0-3.634.952-3.676 3.285V323.8h-10.448v-19.19c0-9.378 4.923-14.335 14.237-14.335 4.622-.002 8.167 1.22 10.534 3.625zm49.578 24.537a4.537 4.537 0 1 1-3.7-3.743 4.563 4.563 0 0 1 3.695 3.743z" transform="translate(-970.438 -253.926)" style="fill:#572cff"/>
    </g>
</svg>
