<svg xmlns="http://www.w3.org/2000/svg" width="160" height="52" viewBox="0 0 160 52">
    <path d="M1105.414 289.528h-.177c-8.952.165-13.49 5.105-13.49 14.684 0 6.862 2.037 15.041 11.737 15.041a9.85 9.85 0 0 0 6.594-2.232c-.019 4.626-2.472 5.891-4.315 6.01a3.509 3.509 0 0 1-1.046-.093 3.676 3.676 0 0 1-.983-.4 3.452 3.452 0 0 1-.823-.663 2.848 2.848 0 0 1-.592-.976 1.324 1.324 0 0 0-.444-.761.723.723 0 0 0-.336-.106h-8.617a.381.381 0 0 0-.365.483l.237.861c1.7 6.2 5.613 9.064 12.209 9.064l.009-.424.009.424c9.187-.164 13.845-4.43 13.845-11.843v-15.97c.001-8.568-4.65-13.099-13.452-13.099zm-3.6 18.475a2.353 2.353 0 0 1-2.577 2.353 2.426 2.426 0 0 1-2.115-2.454v-9.515a2.426 2.426 0 0 1 2.115-2.454 2.353 2.353 0 0 1 2.577 2.352zm6.889 0a2.354 2.354 0 0 1-2.577 2.353 2.426 2.426 0 0 1-2.115-2.454v-9.515a2.426 2.426 0 0 1 2.115-2.454 2.354 2.354 0 0 1 2.577 2.352zM998.3 286.208h-8.119v32.748h-9.565v-32.748h-9.289a.892.892 0 0 1-.889-.9V282c0-3.129 2.157-3.553 4.808-3.553h25.113v5.689a2.067 2.067 0 0 1-2.059 2.072zm17.775 3.21h4.707v17.5c0 5.1-1.395 8.558-4.145 10.268a16.827 16.827 0 0 1-8.563 2.282 14.659 14.659 0 0 1-8.286-2.5c-2.693-1.711-4.068-5.094-4.068-10.047v-17.5h9.262v18.876c0 2.285.954 3.217 3.293 3.217s3.294-.932 3.294-3.217v-14.238a4.594 4.594 0 0 1 1.135-3.426 4.5 4.5 0 0 1 3.371-1.215zm29.26 2.835c2.126 2.155 3.189 5.376 3.162 9.57v17.133H1043.703c-2.915-.2-4.52-1.847-4.52-4.637v-13.846c-.125-2.12-1.078-2.947-3.395-2.947s-3.257.85-3.294 2.934v18.5h-9.363v-17.145c0-8.377 4.411-12.8 12.758-12.8 4.148-.005 7.326 1.085 9.447 3.238zm15.039 1.7v25h-9.263v-29.535h4.758a4.522 4.522 0 0 1 4.506 4.539zm0-7.659h-9.262v-7.853h4.757a4.1 4.1 0 0 1 4.5 4.619zm25.579 5.955c2.126 2.155 3.189 5.376 3.162 9.57v17.133h-4.793c-2.915-.2-4.519-1.847-4.519-4.637v-13.842c-.124-2.12-1.079-2.947-3.4-2.947s-3.256.85-3.294 2.934v18.5h-9.363v-17.145c0-8.377 4.412-12.8 12.758-12.8 4.151-.005 7.328 1.085 9.449 3.238zm44.428 21.918a4.065 4.065 0 1 1-3.317-3.343 4.082 4.082 0 0 1 3.317 3.347z" transform="translate(-970.438 -278.445)" style="fill:#572cff"/>
</svg>
