<svg width="79" height="25" viewBox="0 0 79 25" fill="none" xmlns="http://www.w3.org/2000/svg">
<path d="M46.4095 6.53007L49.6875 18.0605L45.7122 19.1948L42.4758 7.82567L40.457 6.27512L39.562 4.19383L40.0251 1.38414L40.9201 1.18635L41.9711 4.29266L45.0462 3.60072L44.1877 0.327869L45.0618 0L46.6696 1.37893L47.3564 4.40203L46.4095 6.53007Z" fill="white"/>
<path d="M0.818848 4.18342H5.1011V18.5756H9.17002V4.18342H13.4419V0.619293H0.818848V4.18342Z" fill="white"/>
<path d="M18.5463 14.6991C18.2081 14.1684 18.0416 13.4608 18.0416 12.5711V7.4043H13.9727V13.008C13.9727 14.2048 14.2172 15.2506 14.7063 16.13C15.1954 17.0093 15.9031 17.6962 16.8396 18.1749C17.7762 18.6588 18.8897 18.8981 20.2269 18.8981C21.5642 18.8981 22.6933 18.6536 23.6298 18.1749C24.5664 17.6962 25.2793 17.0145 25.7736 16.13C26.2679 15.2454 26.5124 14.2048 26.5124 13.008V7.4043H22.4331V12.5711C22.4331 13.4608 22.2718 14.1684 21.9388 14.6991C21.6058 15.2298 21.0178 15.4952 20.2321 15.4952C19.4464 15.4952 18.8845 15.2298 18.5463 14.6991Z" fill="white"/>
<path d="M36.7161 7.07645C37.4966 7.07645 38.2562 7.23771 39.0003 7.5551C39.7443 7.8725 40.3531 8.37208 40.837 9.0589C41.3157 9.74573 41.5603 10.6459 41.5603 11.7593V18.5756H37.4133V12.441C37.4133 11.6449 37.2208 11.0414 36.841 10.6407C36.4611 10.2349 35.9616 10.037 35.3424 10.037C34.9366 10.037 34.5515 10.1464 34.1925 10.3545C33.8335 10.5678 33.5421 10.8644 33.3236 11.2546C33.0998 11.6397 32.9906 12.082 32.9906 12.5815V18.5808H28.854V7.41461H32.9906V9.0589C33.0998 8.76232 33.3288 8.46054 33.6774 8.15355C34.026 7.85176 34.4683 7.59682 34.999 7.3939C35.5297 7.19097 36.1021 7.08686 36.7213 7.08686L36.7161 7.07645Z" fill="white"/>
<path d="M61.0618 7.5551C60.3177 7.23771 59.5581 7.07645 58.7776 7.07645L58.7828 7.08686C58.1636 7.08686 57.5913 7.19097 57.0605 7.3939C56.5298 7.59682 56.0875 7.85176 55.7389 8.15355C55.3903 8.46054 55.1614 8.76232 55.0521 9.0589V7.41461H50.9155V18.5808H55.0521V12.5815C55.0521 12.082 55.1614 11.6397 55.3851 11.2546C55.6036 10.8644 55.895 10.5678 56.254 10.3545C56.6131 10.1464 56.9981 10.037 57.4039 10.037C58.0231 10.037 58.5226 10.2349 58.9025 10.6407C59.2823 11.0414 59.4748 11.6449 59.4748 12.441V18.5756H63.6218V11.7593C63.6218 10.6459 63.3772 9.74573 62.8985 9.0589C62.4198 8.37208 61.8059 7.8725 61.0618 7.5551Z" fill="white"/>
<path fill-rule="evenodd" clip-rule="evenodd" d="M78.758 18.8825V18.5756H78.7685V7.40938H74.6579V9.04326C74.5278 8.7883 74.3041 8.50727 73.9763 8.20548C73.6485 7.89849 73.2218 7.63832 72.6963 7.41458C72.1708 7.19085 71.5568 7.08163 70.8596 7.08163C69.7721 7.08163 68.8199 7.34702 68.003 7.88295C67.1861 8.41888 66.5513 9.13166 66.0986 10.0266C65.6459 10.9164 65.417 11.9103 65.417 12.9978C65.417 14.0852 65.6459 15.079 66.0986 15.9688C66.5513 16.8585 67.1861 17.5713 68.003 18.102C68.8199 18.6328 69.7721 18.8981 70.8596 18.8981C71.5828 18.8981 72.2228 18.7576 72.7639 18.4818C73.3051 18.2061 73.7421 17.894 74.0751 17.5506C74.4082 17.202 74.6111 16.9418 74.6943 16.7597V18.3674H74.6891V18.638C74.6891 19.2103 74.5643 19.6942 74.3145 20.0949C74.0647 20.4955 73.7161 20.7973 73.2739 21.0055C72.8264 21.2136 72.3061 21.3177 71.7077 21.3177C71.0625 21.3177 70.5161 21.2448 70.0687 21.0887C69.6212 20.9378 69.2414 20.7401 68.9396 20.506C68.6326 20.2666 68.3776 20.0272 68.1695 19.7827L65.75 22.3011C66.2079 22.8734 66.7646 23.3209 67.4254 23.6487C68.0862 23.9713 68.8043 24.2054 69.5692 24.3407C70.3392 24.476 71.1093 24.5437 71.8898 24.5437H71.895C73.1802 24.5437 74.3405 24.3304 75.376 23.9037C76.4062 23.477 77.2335 22.8422 77.8423 21.9992C78.4511 21.1563 78.758 20.1157 78.758 18.8825ZM69.4703 12.9978C69.4703 13.5077 69.59 13.9603 69.8241 14.3661C70.0583 14.772 70.3757 15.0842 70.7711 15.3132C71.1665 15.5421 71.6036 15.6513 72.0823 15.6513C72.561 15.6513 73.0189 15.5369 73.4039 15.3132C73.789 15.0894 74.0856 14.772 74.3093 14.3661C74.533 13.9603 74.6423 13.5077 74.6423 12.9978C74.6423 12.4878 74.533 12.0351 74.3093 11.6292C74.0856 11.2234 73.7838 10.906 73.4039 10.677C73.0241 10.4481 72.5818 10.3284 72.0823 10.3284C71.5828 10.3284 71.1665 10.4429 70.7711 10.677C70.3757 10.906 70.0635 11.2234 69.8241 11.6292C69.59 12.0351 69.4703 12.4878 69.4703 12.9978Z" fill="white"/>
</svg>
