<svg width="104" height="33" viewBox="0 0 104 33" fill="none" xmlns="http://www.w3.org/2000/svg">
<g clip-path="url(#clip0_318_1404)">
<path d="M87.4668 33C83.1796 33 80.639 31.4413 79.5302 27.4711L79.3769 26.9198C79.3331 26.765 79.4508 26.6102 79.6151 26.6102H85.5723L85.6983 27.1316C85.983 28.0115 87.0233 28.3156 87.9651 28.2559C89.1642 28.1798 90.7575 27.6421 90.7685 24.6821C89.6351 25.6326 88.2005 26.1105 86.484 26.1105C80.1791 26.1105 78.854 20.8776 78.854 16.4864C78.854 10.3573 81.8053 7.19636 87.6229 7.09045H87.7379C93.4597 7.09045 96.4821 9.988 96.4821 15.4735V25.6923C96.4821 30.4365 93.4542 32.8941 87.4833 32.9973H87.4723L87.4668 33ZM87.768 10.322C85.9501 10.322 82.7142 10.9792 82.7142 16.663C82.8757 22.0589 85.9775 22.6834 87.6776 22.6834C89.3778 22.6834 91.7431 22.0561 91.9594 16.6249C91.984 14.0777 91.4967 12.2745 90.5166 11.2942C89.8623 10.6397 88.9644 10.322 87.7707 10.322H87.768Z" fill="white"/>
<path d="M6.61704 25.9204V4.96684H0.577656C0.257344 4.96684 0 4.71157 0 4.39385V2.27296C0 0.27156 1.40171 0 3.12646 0H19.4487V3.63891C19.4487 4.37212 18.8491 4.96684 18.1099 4.96684H12.8316V25.9204H6.61704Z" fill="white"/>
<path d="M24.4643 26.249C22.5068 26.249 20.7437 25.7249 19.0792 24.6468C17.3298 23.5524 16.4346 21.3881 16.4346 18.2189V7.02252H22.4548V19.1015C22.4548 20.5625 23.0762 21.1599 24.5957 21.1599C26.1151 21.1599 26.7366 20.5625 26.7366 19.1015V9.99068C26.7147 9.06194 26.9638 8.31786 27.4757 7.79918C27.985 7.28322 28.7214 7.02252 29.6659 7.02252H32.7267V18.2189C32.7267 21.4831 31.8205 23.6936 30.0328 24.788C28.3272 25.7602 26.4601 26.249 24.467 26.249H24.4643Z" fill="white"/>
<path d="M47.6527 25.9204H47.6254C45.7309 25.7901 44.6878 24.7364 44.6878 22.9523V14.094C44.6084 12.7362 43.9869 12.2093 42.4812 12.2093C40.9755 12.2093 40.365 12.7525 40.3403 14.0858V25.9204H34.2544V14.9548C34.2544 9.59421 37.1208 6.76184 42.5469 6.76184C45.2408 6.76184 47.3078 7.45975 48.6848 8.83656C50.0674 10.2161 50.7573 12.2772 50.7409 14.9602V25.9231H47.6527V25.9204Z" fill="white"/>
<path d="M52.438 25.9204V7.02252H55.5316C57.3932 7.02252 58.4582 8.08161 58.4582 9.9255V25.9204H52.438Z" fill="white"/>
<path d="M52.438 5.02386V0H55.5316C56.4788 0 57.218 0.263413 57.7272 0.779378C58.2337 1.29534 58.4801 2.02584 58.4582 2.95458V5.02386H52.438Z" fill="white"/>
<path d="M74.0521 25.9204H74.0248C72.1303 25.7901 71.0872 24.7364 71.0872 22.9523V14.094C71.0078 12.7362 70.3864 12.2093 68.8806 12.2093C67.3749 12.2093 66.7644 12.7525 66.7397 14.0858V25.9204H60.6538V14.9548C60.6538 9.59421 63.5202 6.76184 68.9463 6.76184C71.6402 6.76184 73.7072 7.45975 75.0843 8.83656C76.4668 10.2161 77.1567 12.2772 77.1403 14.9602V25.9231H74.0521V25.9204Z" fill="white"/>
<path d="M101.361 25.9204C102.818 25.9204 104 24.7484 104 23.3026C104 21.8568 102.818 20.6848 101.361 20.6848C99.9033 20.6848 98.7217 21.8568 98.7217 23.3026C98.7217 24.7484 99.9033 25.9204 101.361 25.9204Z" fill="white"/>
<path d="M85.2305 12.2691H85.2277C84.6637 12.2691 84.2065 12.7226 84.2065 13.282V17.4505C84.2065 18.0099 84.6637 18.4634 85.2277 18.4634H85.2305C85.7944 18.4634 86.2516 18.0099 86.2516 17.4505V13.282C86.2516 12.7226 85.7944 12.2691 85.2305 12.2691Z" fill="white"/>
<path d="M88.354 12.2691H88.3512C87.7873 12.2691 87.3301 12.7226 87.3301 13.282V17.4505C87.3301 18.0099 87.7873 18.4634 88.3512 18.4634H88.354C88.918 18.4634 89.3751 18.0099 89.3751 17.4505V13.282C89.3751 12.7226 88.918 12.2691 88.354 12.2691Z" fill="white"/>
</g>
<defs>
<clipPath id="clip0_318_1404">
<rect width="104" height="33" fill="white"/>
</clipPath>
</defs>
</svg>
