<svg width="15" height="15" viewBox="0 0 15 15" fill="none" xmlns="http://www.w3.org/2000/svg">
<path d="M12.0831 9.16687C11.6106 9.16726 11.1452 9.28262 10.7272 9.50301C10.3092 9.7234 9.95105 10.0422 9.68374 10.4319L5.61561 8.595C5.90456 7.89727 5.90568 7.11355 5.61874 6.415L9.68124 4.56875C10.0774 5.14172 10.6658 5.55372 11.3397 5.73003C12.0137 5.90633 12.7284 5.83525 13.3544 5.52969C13.9804 5.22412 14.4762 4.70431 14.7518 4.06454C15.0273 3.42477 15.0645 2.70742 14.8565 2.04261C14.6484 1.3778 14.209 0.809558 13.6179 0.44097C13.0269 0.072382 12.3232 -0.0721439 11.6347 0.0336083C10.9462 0.139361 10.3184 0.488386 9.86514 1.01737C9.4119 1.54636 9.16328 2.22028 9.16436 2.91687C9.16701 3.08175 9.18374 3.2461 9.21436 3.40812L4.89561 5.37062C4.48083 4.98201 3.96156 4.72302 3.4016 4.62547C2.84164 4.52793 2.26538 4.59607 1.74362 4.82153C1.22186 5.047 0.777317 5.41996 0.464611 5.8946C0.151905 6.36924 -0.0153457 6.92489 -0.0165945 7.49328C-0.0178434 8.06167 0.146964 8.61804 0.457581 9.09406C0.768198 9.57007 1.2111 9.94498 1.73186 10.1727C2.25263 10.4005 2.82858 10.4712 3.38896 10.3761C3.94934 10.281 4.46975 10.0243 4.88624 9.6375L9.21624 11.5925C9.18616 11.7544 9.16965 11.9185 9.16686 12.0831C9.16674 12.6601 9.33772 13.2241 9.65819 13.7039C9.97865 14.1837 10.4342 14.5576 10.9672 14.7785C11.5002 14.9993 12.0868 15.0571 12.6526 14.9446C13.2185 14.8321 13.7383 14.5543 14.1463 14.1463C14.5543 13.7383 14.8321 13.2185 14.9446 12.6526C15.0571 12.0868 14.9993 11.5002 14.7785 10.9672C14.5576 10.4342 14.1837 9.97866 13.7039 9.65819C13.2241 9.33773 12.6601 9.16675 12.0831 9.16687ZM12.0831 1.25C12.4128 1.24987 12.7352 1.34753 13.0093 1.53061C13.2835 1.7137 13.4973 1.97398 13.6236 2.27855C13.7498 2.58313 13.7829 2.9183 13.7187 3.24168C13.6544 3.56506 13.4957 3.86213 13.2626 4.09531C13.0295 4.32849 12.7325 4.48731 12.4092 4.55167C12.0858 4.61604 11.7506 4.58307 11.446 4.45692C11.1414 4.33078 10.881 4.11713 10.6978 3.843C10.5146 3.56887 10.4169 3.24658 10.4169 2.91687C10.4172 2.475 10.5928 2.05131 10.9052 1.7388C11.2176 1.42629 11.6412 1.25049 12.0831 1.25ZM2.91686 9.16687C2.58716 9.167 2.26483 9.06934 1.99063 8.88626C1.71643 8.70317 1.50268 8.44289 1.37643 8.13832C1.25017 7.83375 1.21707 7.49857 1.28132 7.17519C1.34556 6.85181 1.50427 6.55474 1.73736 6.32156C1.97045 6.08838 2.26746 5.92956 2.59082 5.8652C2.91418 5.80083 3.24936 5.8338 3.55398 5.95995C3.8586 6.08609 4.11896 6.29974 4.30215 6.57387C4.48534 6.848 4.58311 7.17029 4.58311 7.5C4.58262 7.94182 4.40693 8.36541 4.09457 8.67789C3.78221 8.99036 3.35869 9.16621 2.91686 9.16687ZM12.0831 13.75C11.7534 13.75 11.4312 13.6522 11.157 13.4691C10.8829 13.2859 10.6693 13.0256 10.5431 12.721C10.417 12.4164 10.384 12.0813 10.4483 11.7579C10.5126 11.4346 10.6713 11.1376 10.9045 10.9045C11.1376 10.6713 11.4346 10.5126 11.7579 10.4483C12.0813 10.384 12.4164 10.417 12.721 10.5431C13.0256 10.6693 13.2859 10.8829 13.4691 11.1571C13.6522 11.4312 13.75 11.7534 13.75 12.0831C13.7497 12.5251 13.5739 12.9489 13.2614 13.2614C12.9489 13.5739 12.5251 13.7497 12.0831 13.75Z" fill="black" fill-opacity="0.6"/>
</svg>
