<svg width="20" height="20"  viewBox="0 0 24 24" fill="none" xmlns="http://www.w3.org/2000/svg">
<path d="M0 0.5C0 0.223858 0.223858 0 0.5 0H19.5C19.7761 0 20 0.223858 20 0.5C20 0.776142 19.7761 1 19.5 1H0.5C0.223858 1 0 0.776142 0 0.5Z" fill="black"/>
<path d="M0 7.5C0 7.22386 0.223858 7 0.5 7H19.5C19.7761 7 20 7.22386 20 7.5C20 7.77614 19.7761 8 19.5 8H0.5C0.223858 8 0 7.77614 0 7.5Z" fill="black"/>
<path d="M0.5 14C0.223858 14 0 14.2239 0 14.5C0 14.7761 0.223858 15 0.5 15H19.5C19.7761 15 20 14.7761 20 14.5C20 14.2239 19.7761 14 19.5 14H0.5Z" fill="black"/>
</svg>
