<svg width="31" height="31" viewBox="0 0 31 31" fill="none" xmlns="http://www.w3.org/2000/svg">
<path d="M15.498 30.9959C24.0572 30.9959 30.9959 24.0572 30.9959 15.498C30.9959 6.93867 24.0572 0 15.498 0C6.93867 0 0 6.93867 0 15.498C0 24.0572 6.93867 30.9959 15.498 30.9959Z" fill="#B295E9"/>
<path d="M17.9246 12.2597C17.9246 13.5999 16.8381 14.6863 15.4979 14.6863C14.1577 14.6863 13.0713 13.5999 13.0713 12.2597C13.0713 10.9195 14.1577 9.83301 15.4979 9.83301C16.8381 9.83301 17.9246 10.9195 17.9246 12.2597Z" fill="white"/>
<path d="M20.4507 21.0486C20.4447 21.0876 20.4387 21.1264 20.4369 21.1669H10.5671C10.564 21.1328 10.5592 21.0994 10.5543 21.0661C10.5464 21.0116 10.5386 20.9575 10.5386 20.9018C10.5386 18.1611 12.7613 15.9384 15.502 15.9384C18.2427 15.9384 20.4654 18.1611 20.4654 20.9018C20.4654 20.9533 20.458 21.0011 20.4507 21.0486Z" fill="white"/>
</svg>
