<svg width="20" height="20" viewBox="0 0 20 20"  fill="none" xmlns="http://www.w3.org/2000/svg">
<path fill-rule="evenodd" clip-rule="evenodd" d="M15.129 15.8362C13.5757 17.2241 11.5267 18.0681 9.28214 18.0681C4.4352 18.0681 0.5 14.1326 0.5 9.28214C0.5 4.43169 4.42757 0.5 9.28214 0.5C14.1367 0.5 18.0643 4.43169 18.0643 9.28214C18.0643 11.5267 17.2216 13.5754 15.8358 15.1288L19.3534 18.6465C19.5487 18.8417 19.5487 19.1583 19.3534 19.3536C19.1582 19.5488 18.8416 19.5488 18.6463 19.3536L15.129 15.8362ZM1.5 9.28214C1.5 4.98367 4.98015 1.5 9.28214 1.5C13.5841 1.5 17.0643 4.98367 17.0643 9.28214C17.0643 11.396 16.2208 13.3137 14.8527 14.717C14.8265 14.7347 14.8015 14.7552 14.7783 14.7784C14.7549 14.8017 14.7344 14.8268 14.7166 14.8532C13.3135 16.2235 11.3955 17.0681 9.28214 17.0681C4.98779 17.0681 1.5 13.5806 1.5 9.28214Z" fill="black"/>
</svg>
