<svg xmlns="http://www.w3.org/2000/svg" width="32" height="32" viewBox="0 0 32 32">
    <g data-name="16_ena_comment">
        <path data-name="Rectangle 12617" style="fill:none" d="M0 0h32v32H0z"/>
        <g data-name="Group 6068">
            <path data-name="Path 4121" d="M787-6395h-10a1 1 0 0 0-1 1 1 1 0 0 0 1 1h10a1 1 0 0 0 1-1 1 1 0 0 0-1-1z" style="fill:#505050" transform="translate(-766 6412)"/>
            <path data-name="Path 4122" d="M777-6397h6a1 1 0 0 0 1-1 1 1 0 0 0-1-1h-6a1 1 0 0 0-1 1 1 1 0 0 0 1 1z" style="fill:#505050" transform="translate(-766 6412)"/>
            <path data-name="Path 4123" d="M782-6408a11.946 11.946 0 0 0-12 11.865 11.746 11.746 0 0 0 2.513 7.248l-2.33 3.31a1 1 0 0 0-.023 1.119 1 1 0 0 0 .84.458.992.992 0 0 0 .189-.018l6.164-1.186a12 12 0 0 0 4.647.933 11.946 11.946 0 0 0 12-11.864A11.946 11.946 0 0 0 782-6408zm0 21.728a10.048 10.048 0 0 1-4.125-.886 1 1 0 0 0-.409-.087 1.013 1.013 0 0 0-.188.018l-4.033.775 1.346-1.911a1 1 0 0 0-.073-1.245 9.761 9.761 0 0 1-2.518-6.527 9.945 9.945 0 0 1 10-9.865 9.946 9.946 0 0 1 10 9.864 9.945 9.945 0 0 1-10 9.864z" style="fill:#505050" transform="translate(-766 6412)"/>
        </g>
    </g>
</svg>
