<svg xmlns="http://www.w3.org/2000/svg" width="32" height="32" viewBox="0 0 32 32">
    <g data-name="16_ena_like">
        <path data-name="Rectangle 2831" style="fill:none" d="M0 0h32v32H0z"/>
        <path data-name="Path 4063" d="M-537-6714h-4v-4a4 4 0 0 0-4-4 2 2 0 0 0-1.954 1.579 2.009 2.009 0 0 0-.046.421v3a3.955 3.955 0 0 1-.24 1.314 3.871 3.871 0 0 1-.317.686 3.99 3.99 0 0 1-2.758 1.931 1.989 1.989 0 0 0-.627-.622A1.984 1.984 0 0 0-552-6714h-3a1.978 1.978 0 0 0-1.017.287A1.989 1.989 0 0 0-557-6712v11a2 2 0 0 0 2 2h3a1.984 1.984 0 0 0 1.058-.309A3.978 3.978 0 0 0-548-6698h10.066a4 4 0 0 0 3.965-3.471l.933-8A4 4 0 0 0-537-6714zm-15 13h-3v-11h3v11zm16.982-8.736-.933 8a2.007 2.007 0 0 1-1.983 1.736H-548a2 2 0 0 1-2-2v-9c0-.031.008-.061.009-.091a5.987 5.987 0 0 0 3.454-1.909 6 6 0 0 0 .336-.41 5.962 5.962 0 0 0 .852-1.59l.013-.034A5.979 5.979 0 0 0-545-6717v-3a2 2 0 0 1 2 2v5a.994.994 0 0 0 .584.9.981.981 0 0 0 .416.1h5a1.974 1.974 0 0 1 1.505.682 1.974 1.974 0 0 1 .477 1.582z" transform="translate(561 6726)" style="fill:#505050"/>
    </g>
</svg>
