<svg xmlns="http://www.w3.org/2000/svg" width="48" height="48" viewBox="0 0 48 48">
    <g data-name="24_ena_close">
        <g data-name="Group 5929" transform="translate(1567 6918)">
            <circle data-name="Ellipse 41" cx="10" cy="10" r="10" transform="translate(-1539 -6890)" style="fill:#c9bbff"/>
            <path data-name="Path 4050" d="m-1540.172-6894 14.586-14.586a2 2 0 0 0 0-2.828 2 2 0 0 0-2.828 0l-14.586 14.586-14.586-14.586a2 2 0 0 0-2.828 0 2 2 0 0 0 0 2.828l14.586 14.586-14.586 14.586a2 2 0 0 0 0 2.828 1.99 1.99 0 0 0 1.414.586 1.99 1.99 0 0 0 1.414-.586l14.586-14.586 14.586 14.586a1.99 1.99 0 0 0 1.414.586 1.99 1.99 0 0 0 1.414-.586 2 2 0 0 0 0-2.828z" style="fill:#505050"/>
        </g>
        <path data-name="Rectangle 2874" style="fill:none" d="M0 0h48v48H0z"/>
    </g>
</svg>
