<svg xmlns="http://www.w3.org/2000/svg" width="56" height="56" viewBox="0 0 56 56">
    <g data-name="28_ena_like">
        <g data-name="Group 5865">
            <path data-name="Rectangle 2163" style="fill:none" d="M0 0h56v56H0z"/>
            <path data-name="Path 4064" d="M-618.248-6780H-626v-8a8 8 0 0 0-8-8 3.993 3.993 0 0 0-3.3 1.747 3.977 3.977 0 0 0-.7 2.253v6a7.944 7.944 0 0 1-1.152 4.115 8.071 8.071 0 0 1-1.66 1.963 7.958 7.958 0 0 1-3.812 1.795c-.03-.048-.057-.1-.089-.146A3.992 3.992 0 0 0-648-6780h-6a3.958 3.958 0 0 0-2.033.573A3.983 3.983 0 0 0-658-6776v22a4 4 0 0 0 4 4h6a3.988 3.988 0 0 0 2.247-.691 8.089 8.089 0 0 0 6 2.691h19.581a8.346 8.346 0 0 0 8.174-7.406l1.924-14.933a8.437 8.437 0 0 0-8.174-9.661zM-648-6754h-6v-22h6v22zm33.959-16.85-1.924 14.934a4.367 4.367 0 0 1-4.207 3.916h-19.581a4.4 4.4 0 0 1-4.247-4.533v-17.647c.352-.059.7-.134 1.038-.223a11.944 11.944 0 0 0 3.59-1.6 12.1 12.1 0 0 0 1.465-1.158 12.04 12.04 0 0 0 2.288-2.842c.03-.051.063-.1.092-.15a11.935 11.935 0 0 0 1.35-3.868A11.981 11.981 0 0 0-634-6786v-6a4 4 0 0 1 4 4v10a2 2 0 0 0 2 2h9.752a4.083 4.083 0 0 1 3.095 1.43 4.716 4.716 0 0 1 1.112 3.72z" transform="translate(662 6800)" style="fill:current"/>
        </g>
    </g>
</svg>
